<svg width="700" height="500" viewBox="0 0 700 500" fill="none" xmlns="http://www.w3.org/2000/svg">
<rect width="700" height="500" fill="transparent"/>

<!-- Main holographic screen -->
<rect x="100" y="50" width="500" height="300" rx="20" fill="#1E90FF" opacity="0.7"/>
<rect x="110" y="60" width="480" height="280" rx="15" fill="#000000" opacity="0.5"/>

<!-- Charts -->
<rect x="130" y="90" width="150" height="80" rx="10" fill="#BA55D3" opacity="0.8"/>
<path d="M135 160L160 130L190 150L210 120L230 140L275 110" stroke="#E0FFFF" stroke-width="3"/>

<rect x="300" y="200" width="120" height="90" rx="10" fill="#00CED1" opacity="0.8"/>
<circle cx="330" cy="245" r="25" fill="#E0FFFF" opacity="0.3"/>
<circle cx="370" cy="245" r="20" fill="#E0FFFF" opacity="0.5"/>

<!-- Circuit patterns -->
<line x1="500" y1="80" x2="550" y2="120" stroke="#E0FFFF" stroke-width="2"/>
<line x1="550" y1="120" x2="520" y2="160" stroke="#E0FFFF" stroke-width="2"/>
<line x1="520" y1="160" x2="570" y2="180" stroke="#E0FFFF" stroke-width="2"/>

<rect x="450" y="220" width="100" height="50" rx="8" fill="#8A2BE2" opacity="0.8"/>
<rect x="460" y="230" width="30" height="30" rx="5" fill="#E0FFFF"/>
<rect x="510" y="230" width="30" height="30" rx="5" fill="#E0FFFF"/>

<!-- Console / Input area -->
<rect x="100" y="370" width="500" height="80" rx="10" fill="#4169E1" opacity="0.8"/>
<rect x="120" y="390" width="460" height="40" rx="5" fill="#000000" opacity="0.7"/>
<text x="130" y="415" font-family="monospace" font-size="20" fill="#E0FFFF">></text>

</svg>